# xmcd CD database file
#
# Track frame offsets:
#	150
#	11857
#	22392
#	38612
#	51652
#	72550
#	86397
#	102107
#	120065
#	134462
#	153695
#	164827
#	176390
#	194605
#	216322
#	230287
#	241105
#	253540
#	266100
#	282365
#
# Disc length: 4084 seconds
#
# Revision: 2
# Processed by: cddbd v1.4PL0 Copyright (c) Steve Scherf et al.
# Submitted via: CDex 1.50Beta5
#
DISCID=280ff214
DTITLE=Various Artist - Classic Country - More Great Country Songs
DYEAR=1900
DGENRE=Country
TTITLE0=Hank Williams: Kaw-Liga
TTITLE1=Johny Horton: Johny Reb
TTITLE2=Lorne Greene: Ringo
TTITLE3=Marty Robbins: The Hanging Tree
TTITLE4=Desperados Waiting for a Train
TTITLE5=Tanya Tucker: Lizzie and the Rainman
TTITLE6=Bill Anderson: Mama Sang a Song
TTITLE7=Bobby Goldsboro: Honey
TTITLE8=Bobby Bare: Marie Leveau
TTITLE9=Bobbie Gentry: Ode to Billie Joe
TTITLE10=Carl Smith: Ten Thousand Drums
TTITLE11=Charlie Ryan: Hot Road Lincoln
TTITLE12=Johny Cash: One Piece at a Time
TTITLE13=Willie Nelson and Merle Haggard: Pancho and Lefty
TTITLE14=Dolly Parton: Coat of Many Colors
TTITLE15=Porter Waggoner: Green, Green Grass of Home
TTITLE16=Tom T. Hall: The Year THat Clayton Delaney Died
TTITLE17=Sonny James: Running Bear
TTITLE18=Vicki Lawrence: The Night the Lights Went Out in Georgia
TTITLE19=Charlie Daniels: Uneasy Rider
EXTD=
EXTT0=
EXTT1=
EXTT2=
EXTT3=
EXTT4=
EXTT5=
EXTT6=
EXTT7=
EXTT8=
EXTT9=
EXTT10=
EXTT11=
EXTT12=
EXTT13=
EXTT14=
EXTT15=
EXTT16=
EXTT17=
EXTT18=
EXTT19=
PLAYORDER=
